:SAMPLES-PER-SECOND 24
:FULLY-SPECIFIED
:DEGREES
552
root  -5.07185 38.1535 69.6753 174.544 -72.6071 -176.479
RightUpLeg  -15.1634 -8.94194 -27.1044
RightLeg  20.4376 6.16842 2.32858
RightFoot  13.122 -1.7348 8.40028
RightToes  -1.46203e-006 3.27826e-006 1.63871e-007
Spine  7.4774 -2.10356 -10.4
Spine1  11.4375 -7.91714 16.0693
HEad  -23.4792 -38.4323 18.0923
LeftShoulder1  2.06482 -3.71437 -22.2955
LeftArm  21.948 23.6565 -38.3096
LeftForeArm  8.487 -47.9417 -11.8342
LeftHand  -0.101315 4.37455 9.93464
RightShoulder  2.71841 4.4739 28.1251
RightArm  -37.7798 -10.758 9.52805
RightForeArm  133.692 51.138 164.974
RightHand  -1.32737 -0.774666 -32.722
LeftUpLeg  0.17472 20.4999 19.2305
LeftLeg  31.0857 -2.00576 -0.965855
LeftFoot  -11.7338 0.00786558 -23.8732
LeftToes  1.24767e-006 1.47042e-008 1.32732e-009
553
root  -4.741 36.6737 68.8023 176.537 -71.3879 -178.124
RightUpLeg  -18.9059 -7.32349 -28.8398
RightLeg  18.6577 4.4881 1.46465
RightFoot  12.8771 -0.721201 3.80913
RightToes  -1.46203e-006 3.27826e-006 1.63871e-007
Spine  7.99712 -1.27229 -11.6014
Spine1  12.2864 -7.51239 16.9109
HEad  -26.2515 -37.5607 19.801
LeftShoulder1  2.12011 -3.50942 -24.0028
LeftArm  19.3122 16.865 -36.2728
LeftForeArm  8.4635 -43.3175 -10.0048
LeftHand  0.0344101 5.85092 12.5086
RightShoulder  3.22407 5.19886 31.1413
RightArm  -38.9467 -4.57403 8.8739
RightForeArm  139.157 52.115 164.843
RightHand  -1.34213 -1.12135 -35.7835
LeftUpLeg  -3.1486 23.7594 22.105
LeftLeg  39.8343 -5.18189 -4.22977
LeftFoot  -16.4375 -1.01287 -24.7352
LeftToes  1.24767e-006 1.47042e-008 1.32732e-009
554
root  -4.44763 35.6313 67.384 179.804 -70.3907 178.4
RightUpLeg  -22.4404 -6.26605 -29.9771
RightLeg  20.7947 8.2387 3.25452
RightFoot  12.6187 -0.523496 2.79597
RightToes  -1.46203e-006 3.27826e-006 1.63871e-007
Spine  8.37553 -0.830937 -10.3074
Spine1  13.2275 -5.98694 13.0537
HEad  -29.4808 -37.6018 22.1254
LeftShoulder1  2.1351 -3.5273 -24.1493
LeftArm  11.0421 11.5076 -36.2037
LeftForeArm  8.41731 -40.3669 -8.98023
LeftHand  0.364104 7.61521 19.3595
RightShoulder  3.85422 6.0081 34.6219
RightArm  -33.5008 0.636868 11.9503
RightForeArm  145.014 55.513 163.456
RightHand  -0.4178 -3.93292 -35.9123
LeftUpLeg  -4.06805 26.2142 25.3988
LeftLeg  44.6116 -7.12896 -7.05933
LeftFoot  -17.3188 -1.25644 -25.6029
LeftToes  1.24767e-006 1.47042e-008 1.32732e-009
555
root  -4.3732 35.1406 65.2075 -177.351 -69.9995 175.166
RightUpLeg  -24.3338 -5.85226 -29.4587
RightLeg  26.0594 9.85319 5.00007
RightFoot  7.59913 -1.53204 9.47871
RightToes  -1.46203e-006 3.27826e-006 1.63871e-007
Spine  8.24589 -0.394202 -8.79213
Spine1  13.3687 -4.23837 9.00434
HEad  -31.931 -38.7089 22.3377
LeftShoulder1  2.18334 -3.57462 -24.6512
LeftArm  1.66294 8.65463 -36.5088
LeftForeArm  4.80946 -41.8844 -9.72811
LeftHand  0.557764 7.95118 25.1237
RightShoulder  4.19288 6.37174 36.5313
RightArm  -26.1558 3.64517 15.1229
RightForeArm  153.661 60.6934 160.827
RightHand  0.546157 -8.31983 -21.9141
LeftUpLeg  -0.399035 26.1146 28.9198
LeftLeg  41.0334 -9.04628 -7.94508
LeftFoot  -17.1893 -1.51667 -30.9695
LeftToes  1.24767e-006 1.47042e-008 1.32732e-009
556
root  -4.44847 35.2774 62.2499 -174.058 -71.2188 171.982
RightUpLeg  -24.9653 -8.23707 -27.0839
RightLeg  32.7443 9.23714 6.13757
RightFoot  -0.119789 -1.59209 15.977
RightToes  -1.46203e-006 3.27826e-006 1.63871e-007
Spine  7.08698 -0.144312 -8.86692
Spine1  12.9234 -3.09748 6.46053
HEad  -32.0518 -40.9525 21.9289
LeftShoulder1  2.20129 -3.57928 -24.8953
LeftArm  -3.57217 7.01157 -35.5015
LeftForeArm  2.41376 -46.4745 -11.6419
LeftHand  0.273412 6.80214 22.7566
RightShoulder  4.15281 6.35333 36.2102
RightArm  -19.5068 3.58223 17.2645
RightForeArm  164.945 66.5566 156.852
RightHand  0.0353855 -6.19928 -1.79186
LeftUpLeg  3.66519 21.4213 30.8036
LeftLeg  30.097 -6.55039 -3.89698
LeftFoot  -8.4303 0.97554 -36.1407
LeftToes  1.24767e-006 1.47042e-008 1.32732e-009
557
root  -4.50984 35.8149 59.0537 -172.442 -74.5121 170.824
RightUpLeg  -24.4716 -12.3766 -22.9318
RightLeg  38.5514 10.0628 8.25849
RightFoot  -6.50273 -0.770863 16.8081
RightToes  -1.46203e-006 3.27826e-006 1.63871e-007
Spine  5.75414 -0.966936 -8.1898
Spine1  12.1925 -2.86708 3.78028
HEad  -30.14 -43.4326 22.5288
LeftShoulder1  2.14347 -3.62616 -23.8316
LeftArm  -5.27587 5.29327 -32.2623
LeftForeArm  7.82378 -52.7062 -14.2155
LeftHand  -0.0595232 5.00939 15.8695
RightShoulder  3.92298 6.17003 34.6601
RightArm  -13.1739 1.22791 18.6117
RightForeArm  166.678 71.9383 149.967
RightHand  0.102366 -1.45664 3.95141
LeftUpLeg  5.2488 12.9423 30.9532
LeftLeg  19.0186 3.90868 2.18285
LeftFoot  4.46876 3.94804 -28.957
LeftToes  1.24767e-006 1.47042e-008 1.32732e-009
558
root  -4.48342 36.6542 56.0393 -177.23 -79.0645 175.399
RightUpLeg  -20.9628 -14.855 -17.0491
RightLeg  39.4102 9.00406 7.57704
RightFoot  -9.52809 -0.288967 13.5422
RightToes  -1.46203e-006 3.27826e-006 1.63871e-007
Spine  5.04426 -2.45874 -8.02238
Spine1  12.1907 -3.87373 2.23279
HEad  -27.4228 -44.9499 23.1146
LeftShoulder1  2.06518 -3.58322 -22.8572
LeftArm  -6.49141 2.18523 -28.0953
LeftForeArm  16.6187 -59.543 -17.945
LeftHand  -0.114747 4.60259 14.8346
RightShoulder  3.76647 6.0299 33.6259
RightArm  -9.68045 -3.51952 18.8304
RightForeArm  153.664 75.8702 139.03
RightHand  -0.0871098 -2.04982 -3.00565
LeftUpLeg  3.77996 9.99142 30.6721
LeftLeg  19.7007 12.8491 5.70511
LeftFoot  6.42549 2.21745 -14.14
LeftToes  1.24767e-006 1.47042e-008 1.32732e-009
559
root  -4.42292 38.0049 53.4661 162.166 -83.0483 -165.061
RightUpLeg  -14.8774 -17.4573 -10.7891
RightLeg  34.1401 6.44635 4.44425
RightFoot  -6.46367 -0.474768 10.0867
RightToes  -1.46203e-006 3.27826e-006 1.63871e-007
Spine  4.76546 -3.68774 -10.9589
Spine1  13.7353 -6.10224 4.71316
HEad  -22.8435 -45.4077 22.123
LeftShoulder1  1.97533 -3.4121 -22.2444
LeftArm  -8.08495 -1.62155 -26.6571
LeftForeArm  20.4781 -64.6054 -22.4032
LeftHand  0.160989 6.39853 19.5728
RightShoulder  3.73421 5.96817 33.5434
RightArm  -10.3998 -11.0929 19.1644
RightForeArm  124.447 79.2306 116.041
RightHand  -0.300743 -3.0596 -14.5431
LeftUpLeg  -0.00120297 15.9678 27.6982
LeftLeg  32.3808 11.663 8.2257
LeftFoot  -0.231997 0.79266 -8.12835
LeftToes  1.24767e-006 1.47042e-008 1.32732e-009
560
root  -4.34727 39.566 51.4188 122.747 -83.2503 -126.348
RightUpLeg  -10.9099 -21.3354 -5.92437
RightLeg  29.7538 13.0385 7.72681
RightFoot  2.62923 -2.07072 16.1279
RightToes  -1.46203e-006 3.27826e-006 1.63871e-007
Spine  4.99069 -4.63816 -14.6815
Spine1  14.1522 -8.86807 10.2153
HEad  -14.9338 -44.7119 18.2919
LeftShoulder1  1.94236 -3.41871 -21.7099
LeftArm  -8.73455 -3.34129 -27.7217
LeftForeArm  20.5078 -67.7496 -26.7835
LeftHand  0.297791 6.93661 22.6442
RightShoulder  3.73403 5.92292 33.7304
RightArm  -11.6033 -19.5747 19.6346
RightForeArm  79.0809 79.7396 77.5159
RightHand  -0.276329 -4.08901 -24.8744
LeftUpLeg  -3.31231 22.6097 21.0985
LeftLeg  44.4783 7.12986 7.85002
LeftFoot  -1.58978 0.780979 -9.00787
LeftToes  1.24767e-006 1.47042e-008 1.32732e-009
